<svg xmlns="http://www.w3.org/2000/svg" viewBox="0 0 280 150">
  <rect width="280" height="150" fill="#fff"/>
  <path d="M40 119c38-4 79-5 123-2 34 2 63-1 86-6" fill="none" stroke="#1c1b18" stroke-width="2" stroke-linecap="round"/>
  <path d="M66 108c22-28 58-37 104-26 34 8 58 0 76-21 9 29-12 54-51 66-47 14-90 7-129-19z" fill="#fff1c1" opacity=".86"/>
  <path d="M182 31c13-18 44-5 34 19-5 14-22 25-37 37-15-13-31-25-35-39-6-24 24-34 38-17z" fill="none" stroke="#1c1b18" stroke-width="2.2" stroke-linejoin="round"/>
  <path d="M178 91c-1 10-1 20 0 30m-16-15c10-1 21-1 32 0" fill="none" stroke="#1c1b18" stroke-width="2.2" stroke-linecap="round"/>
  <ellipse cx="109" cy="69" rx="14" ry="18" transform="rotate(-10 109 69)" fill="none" stroke="#1c1b18" stroke-width="2.1"/>
  <path d="M108 87c-5 10-9 21-13 33m13-28c-14 8-28 11-42 10m43-10c13 8 28 9 45 4m-60 23c-10 6-20 7-31 5m31-5c10 5 21 6 34 3" fill="none" stroke="#1c1b18" stroke-width="2.1" stroke-linecap="round"/>
  <path d="M120 86c15-13 31-20 48-20m-74 7c-12-2-23-6-32-14m104-13c-6 4-12 8-19 10m58 18c11 3 22 3 33-1" fill="none" stroke="#1c1b18" stroke-width="1.3" stroke-linecap="round"/>
</svg>
