<svg xmlns="http://www.w3.org/2000/svg" viewBox="0 0 280 150">
  <rect width="280" height="150" fill="#fff"/>
  <path d="M34 120c38-5 78-5 120-2 36 2 67-1 93-6" fill="none" stroke="#1c1b18" stroke-width="2" stroke-linecap="round"/>
  <path d="M49 108c23-27 58-35 105-24 34 8 61-1 82-24 10 29-10 55-52 67-49 15-93 8-135-19z" fill="#fff1c1" opacity=".84"/>
  <ellipse cx="97" cy="64" rx="13.5" ry="17.5" transform="rotate(8 97 64)" fill="none" stroke="#1c1b18" stroke-width="2.1"/>
  <path d="M94 81c-7 13-11 26-13 40m13-34c-13 9-26 14-39 15m40-15c12 9 25 12 40 9m-55 24c-8 5-17 7-27 6m27-6c8 5 18 6 30 4" fill="none" stroke="#1c1b18" stroke-width="2.1" stroke-linecap="round"/>
  <path d="M132 43c9 18 8 43-2 74m3-75c7-11 23-14 30-4 4 6-1 14-11 16" fill="none" stroke="#1c1b18" stroke-width="2.1" stroke-linecap="round"/>
  <path d="M178 96c-9-1-16 3-19 10-3 8 5 13 17 11 12-1 18-9 15-15-2-4-6-6-13-6zm-20 11c-5-3-10-2-14 2m48-7c6-3 12-2 17 2" fill="none" stroke="#1c1b18" stroke-width="1.7" stroke-linecap="round" stroke-linejoin="round"/>
  <path d="M211 86c-9-1-16 2-18 8-3 8 5 12 16 10 11-1 17-8 14-14-2-3-6-5-12-4zm-18 9c-5-2-9-1-13 2m43-7c6-2 11-1 15 3" fill="none" stroke="#1c1b18" stroke-width="1.6" stroke-linecap="round" stroke-linejoin="round"/>
  <path d="M229 117c-7-2-10-8-7-14 4-7 14-6 21-1m-10 14c9-2 15-8 13-15" fill="none" stroke="#1c1b18" stroke-width="1.7" stroke-linecap="round"/>
  <path d="M206 68c13 0 24 3 33 10m-70 9c-12-2-22-7-30-14m72 34c10 8 20 11 31 8" fill="none" stroke="#1c1b18" stroke-width="1.3" stroke-linecap="round"/>
</svg>
