<svg xmlns="http://www.w3.org/2000/svg" viewBox="0 0 280 150">
  <rect width="280" height="150" fill="#fff"/>
  <path d="M39 118c38-5 78-4 119-2 34 2 64-1 89-6" fill="none" stroke="#1c1b18" stroke-width="2" stroke-linecap="round"/>
  <path d="M58 108c23-27 63-35 112-22 33 9 56 1 73-20 10 29-9 53-49 65-48 14-93 6-136-23z" fill="#fff1c1" opacity=".88"/>
  <path d="M177 22c-2 37-2 72-1 108" fill="none" stroke="#1c1b18" stroke-width="3.2" stroke-linecap="round"/>
  <path d="M128 71c31-3 68-3 108 1" fill="none" stroke="#1c1b18" stroke-width="3.1" stroke-linecap="round"/>
  <ellipse cx="104" cy="59" rx="14" ry="18" transform="rotate(-15 104 59)" fill="none" stroke="#1c1b18" stroke-width="2.1"/>
  <path d="M102 75c-8 14-13 28-16 43" fill="none" stroke="#1c1b18" stroke-width="2.2" stroke-linecap="round"/>
  <path d="M100 81c18 12 38 13 59 2" fill="none" stroke="#1c1b18" stroke-width="2.2" stroke-linecap="round"/>
  <path d="M102 79c18-13 38-17 59-10" fill="none" stroke="#1c1b18" stroke-width="2.1" stroke-linecap="round"/>
  <path d="M87 116c-10 5-21 7-32 6m31-6c10 5 22 7 34 5" fill="none" stroke="#1c1b18" stroke-width="2.1" stroke-linecap="round"/>
  <path d="M123 55c-11 3-20 8-27 15m96 64c13 0 27-2 40-5m-129-8c-10 3-21 4-34 2" fill="none" stroke="#1c1b18" stroke-width="1.3" stroke-linecap="round"/>
</svg>
