<svg xmlns="http://www.w3.org/2000/svg" viewBox="0 0 280 150">
  <rect width="280" height="150" fill="#fff"/>
  <path d="M40 117c38-5 80-5 126-2 31 1 59-2 82-7" fill="none" stroke="#1c1b18" stroke-width="2" stroke-linecap="round"/>
  <path d="M55 109c22-22 58-31 103-23 35 6 61-2 78-20 9 25-10 47-47 58-47 13-91 8-134-15z" fill="#fff1c1" opacity=".82"/>
  <path d="M183 28c-13 7-18 21-11 34 6 11 19 15 32 9-6 10-18 15-31 12-17-5-27-22-21-39 5-14 18-21 31-16z" fill="none" stroke="#1c1b18" stroke-width="2.2" stroke-linejoin="round"/>
  <path d="M225 32l2 5 5 1-5 2-2 5-2-5-5-2 5-1 2-5zm-27-14l1 4 4 1-4 1-1 4-1-4-4-1 4-1 1-4z" fill="none" stroke="#1c1b18" stroke-width="1.5" stroke-linejoin="round"/>
  <path d="M61 83c26-5 56-6 90-2m73 8c12-2 23-2 34 0m-174 17c35-3 71-2 108 0" fill="none" stroke="#1c1b18" stroke-width="1.4" stroke-linecap="round" opacity=".7"/>
  <ellipse cx="118" cy="76" rx="13.5" ry="17.5" transform="rotate(-5 118 76)" fill="none" stroke="#1c1b18" stroke-width="2.1"/>
  <path d="M117 93c-5 9-10 18-17 27m16-22c-12 5-25 7-38 7m39-7c10 7 23 10 37 8m-55 14c-8 4-17 5-26 3m26-3c9 4 20 5 31 2" fill="none" stroke="#1c1b18" stroke-width="2.1" stroke-linecap="round" stroke-linejoin="round"/>
</svg>
